<svg xmlns="http://www.w3.org/2000/svg" width="149.462" height="129.532" viewBox="0 0 149.462 129.532"><defs><style>.a{fill:#fe0c40;}</style></defs><g transform="translate(0 0.001)"><g transform="translate(0 -0.001)"><path class="a" d="M144.48,12H42.348a2.491,2.491,0,1,0,0,4.982H57.406A37.9,37.9,0,0,0,39.857,49.365,37.9,37.9,0,0,0,57.406,81.749H4.982V16.982h24.91a2.491,2.491,0,0,0,0-4.982H4.982A4.982,4.982,0,0,0,0,16.982V81.749a4.982,4.982,0,0,0,4.982,4.982h139.5a4.982,4.982,0,0,0,4.982-4.982V16.982A4.982,4.982,0,0,0,144.48,12ZM44.839,49.365c0-17.856,13.409-32.383,29.892-32.383s29.892,14.528,29.892,32.383S91.214,81.749,74.731,81.749,44.839,67.221,44.839,49.365ZM144.48,81.749H92.056a37.9,37.9,0,0,0,17.549-32.383A37.9,37.9,0,0,0,92.056,16.982H144.48Z" transform="translate(0 15.405)"/><path class="a" d="M88.145,1.525a4.982,4.982,0,0,0-3.8-.274L30.692,19.234a2.5,2.5,0,1,0,1.584,4.733L85.918,5.984,91.423,22.4a2.5,2.5,0,1,0,4.733-1.582l-5.508-16.4a4.91,4.91,0,0,0-2.5-2.887Z" transform="translate(43.222 -0.999)"/><path class="a" d="M68.005,43.865,14.364,61.845,8.858,45.431a2.5,2.5,0,1,0-4.733,1.582l5.5,16.4A4.91,4.91,0,0,0,12.114,66.3a5,5,0,0,0,2.22.523,5.07,5.07,0,0,0,1.577-.249L69.567,48.59a2.5,2.5,0,0,0-1.584-4.733Z" transform="translate(5.958 62.71)"/><path class="a" d="M44.928,31.7a2.491,2.491,0,1,0,4.982,0,11.6,11.6,0,0,0-9.964-10.983v-.227a2.491,2.491,0,1,0-4.982,0v.227A11.6,11.6,0,0,0,25,31.7a11.6,11.6,0,0,0,9.964,10.983v12.3a6.414,6.414,0,0,1-4.982-5.844,2.491,2.491,0,0,0-4.982,0,11.6,11.6,0,0,0,9.964,10.983v.227a2.491,2.491,0,0,0,4.982,0v-.227A11.6,11.6,0,0,0,49.91,49.138a11.6,11.6,0,0,0-9.964-10.983v-12.3A6.414,6.414,0,0,1,44.928,31.7Zm-14.946,0a6.414,6.414,0,0,1,4.982-5.844V37.545A6.414,6.414,0,0,1,29.982,31.7ZM44.928,49.138a6.414,6.414,0,0,1-4.982,5.844V43.294a6.414,6.414,0,0,1,4.982,5.844Z" transform="translate(37.276 24.351)"/><path class="a" d="M52.491,46.946h9.964a2.491,2.491,0,0,0,2.491-2.491V34.491a2.491,2.491,0,1,0-4.982,0v7.473H52.491a2.491,2.491,0,0,0,0,4.982Z" transform="translate(74.552 45.226)"/><path class="a" d="M6.491,32A2.491,2.491,0,0,0,4,34.491v9.964a2.491,2.491,0,0,0,2.491,2.491h9.964a2.491,2.491,0,1,0,0-4.982H8.982V34.491A2.491,2.491,0,0,0,6.491,32Z" transform="translate(5.964 45.226)"/><path class="a" d="M16.455,16H6.491A2.491,2.491,0,0,0,4,18.491v9.964a2.491,2.491,0,0,0,4.982,0V20.982h7.473a2.491,2.491,0,1,0,0-4.982Z" transform="translate(5.964 21.369)"/><path class="a" d="M52.491,20.982h7.473v7.473a2.491,2.491,0,0,0,4.982,0V18.491A2.491,2.491,0,0,0,62.455,16H52.491a2.491,2.491,0,0,0,0,4.982Z" transform="translate(74.552 21.369)"/></g></g></svg>