<svg xmlns="http://www.w3.org/2000/svg" width="253.456" height="201.016" viewBox="0 0 253.456 201.016"><defs><style>.a{fill:#fe0c40;}</style></defs><g transform="translate(0 -6)"><path class="a" d="M249.086,6H4.37A4.369,4.369,0,0,0,0,10.37V202.647a4.369,4.369,0,0,0,4.37,4.37H249.086a4.369,4.369,0,0,0,4.37-4.37V10.37A4.369,4.369,0,0,0,249.086,6Zm-4.37,192.277H8.74V14.74H244.716Z"/><path class="a" d="M34.767,65.672A24.336,24.336,0,1,0,10.431,41.336,24.361,24.361,0,0,0,34.767,65.672Zm0-39.932a15.6,15.6,0,1,1-15.6,15.6A15.616,15.616,0,0,1,34.767,25.74Z" transform="translate(35.152 37.069)"/><path class="a" d="M10.372,123.506a4.359,4.359,0,0,0,2.884-1.088L84.542,59.657l45.019,45.015a4.369,4.369,0,1,0,6.179-6.179L114.734,77.486l40.12-43.935,49.21,45.111a4.37,4.37,0,0,0,5.9-6.446L157.529,24.147A4.507,4.507,0,0,0,154.383,23a4.378,4.378,0,0,0-3.033,1.42L108.551,71.3,87.824,50.572a4.374,4.374,0,0,0-5.978-.192L7.483,115.854a4.37,4.37,0,0,0,2.889,7.652Z" transform="translate(20.218 57.291)"/></g></svg>