<svg xmlns="http://www.w3.org/2000/svg" width="21.142" height="25.782" viewBox="0 0 21.142 25.782">
  <g id="apple-seeklogo.com" transform="translate(0.259 0.259)">
    <path id="Path_18" data-name="Path 18" d="M17.187,13.427a5.586,5.586,0,0,0,3.392,5.114,13.83,13.83,0,0,1-1.749,3.595c-1.053,1.54-2.147,3.074-3.869,3.105-1.692.031-2.236-1-4.171-1s-2.539.972-4.141,1.035c-1.662.063-2.928-1.665-3.99-3.2-2.17-3.138-3.829-8.866-1.6-12.733A6.187,6.187,0,0,1,6.286,6.172c1.632-.031,3.173,1.1,4.171,1.1s2.87-1.358,4.838-1.159a5.9,5.9,0,0,1,4.622,2.507,5.716,5.716,0,0,0-2.731,4.809m-3.18-9.392A5.567,5.567,0,0,0,15.321,0,5.665,5.665,0,0,0,11.6,1.915a5.289,5.289,0,0,0-1.341,3.909,4.687,4.687,0,0,0,3.749-1.79" transform="translate(0)" fill="none" stroke="#fe0b40" stroke-width="0.5"/>
  </g>
</svg>
