<svg xmlns="http://www.w3.org/2000/svg" width="177.976" height="188.495" viewBox="0 0 177.976 188.495">
  <g id="Artboard_4" data-name="Artboard 4" transform="translate(-188.89 -172.791)">
    <g id="Layer_2" data-name="Layer 2" transform="translate(188.89 252.725)">
      <path id="Path_1" data-name="Path 1" d="M97.967,313.818s-1.515-7.979-12.417-8.081S69.89,302.1,69.89,302.1a11.089,11.089,0,0,0,11.619,8.891c10.9-.2,16.458,4.436,16.458,4.436" transform="translate(-69.89 -302.1)" fill="#fff"/>
      <path id="Path_2" data-name="Path 2" d="M124.3,380.72s-1.816-5.805-7.266-5.683-11.448-2.447-11.448-2.447,2.029,6.419,7.186,6A23.854,23.854,0,0,1,124.3,380.72Z" transform="translate(-95.446 -352.56)" fill="#fff"/>
    </g>
    <g id="Layer_4" data-name="Layer 4" transform="translate(194.221 172.791)">
      <path id="Path_3" data-name="Path 3" d="M203.67,220.826,209,224.978s3.711-6.192,18.413-11.485,17.535-8.613,17.535-8.613a57.66,57.66,0,0,1-21.126,14.81c-10.084,4.708-5.907,7.553-5.907,7.553s3.913,3.126,19.868-12.716c0,0-17.143,21.854-27.562,17.236C208.535,231.152,203.67,220.826,203.67,220.826Z" transform="translate(-166.233 -156.834)" fill="#fff"/>
      <path id="Path_4" data-name="Path 4" d="M327.429,243.1a33.245,33.245,0,0,0-9.2-15.12q-6.683-6.356-17.927-9.812t-27.338-2.793a97.326,97.326,0,0,0-24.678,3.944,95.124,95.124,0,0,0-19.973,8.607A80.832,80.832,0,0,0,212.7,239.6a92.231,92.231,0,0,0-11.318,13.045,72.692,72.692,0,0,0-7.294,12.662,39.2,39.2,0,0,0-3.205,10.579,26.235,26.235,0,0,0,7.5,22.689,30.319,30.319,0,0,0,12.2,7.072q7.51,2.447,17.768,1.492c.04-.026.085,0,.131,0h.028c2.057-.852,4.18-.781,6.385-1.117a39.367,39.367,0,0,1,4.089-.77l.432-.085q3.276-.9,6.686-2t7.1-2.628a5.035,5.035,0,0,0,2.589-2.961,19.321,19.321,0,0,0,1.3-4.66,12.062,12.062,0,0,0,0-4.055q-.341-1.7-1.023-1.37a110.469,110.469,0,0,1-12.5,5.893h0c-.426.153-.852.284-1.281.412-.239.088-.477.168-.71.25a14.352,14.352,0,0,1-2.25.767,3.826,3.826,0,0,0-.568.2h0a10.347,10.347,0,0,1-2.171.645l-5.072,1.37q-9,1.54-15.407-.438a21.355,21.355,0,0,1-10.087-6.194,20.433,20.433,0,0,1-4.706-10.133,27.154,27.154,0,0,1,.747-12.17A48.433,48.433,0,0,1,211.6,250.6a75.215,75.215,0,0,1,16.089-14.358,86.867,86.867,0,0,1,20.4-9.974,84.309,84.309,0,0,1,22.291-4.438q12.136-.662,20.589,2.356A31.058,31.058,0,0,1,311.7,246.6a49.381,49.381,0,0,1,1.228,16.938,76.129,76.129,0,0,1-4.228,18.634,94.9,94.9,0,0,1-9.2,18.8,110.74,110.74,0,0,1-13.7,17.484,97.845,97.845,0,0,1-17.657,14.58A92.369,92.369,0,0,1,247,343.116a80.778,80.778,0,0,1-24.2,4.007,37.812,37.812,0,0,1-10.09-.932,18.8,18.8,0,0,1-6.339-2.793,12.218,12.218,0,0,1-3.546-3.839,12.9,12.9,0,0,1-1.5-4,13.176,13.176,0,0,1-.2-3.452,7.545,7.545,0,0,0,0-2.083q-.136-.872-1.7-.284a20.049,20.049,0,0,0-3.339,1.7,48.177,48.177,0,0,0-4.785,3.089,13.08,13.08,0,0,0,3.543,8.988,28.256,28.256,0,0,0,4.024,3.29,25.272,25.272,0,0,0,6,2.9,49.219,49.219,0,0,0,8.658,2.029,79.246,79.246,0,0,0,11.724.767,87.006,87.006,0,0,0,26.315-4,110.493,110.493,0,0,0,23.868-10.744A117.762,117.762,0,0,0,296,322.03a119.956,119.956,0,0,0,16.307-19.083,113.185,113.185,0,0,0,11.247-20.663,73.86,73.86,0,0,0,5.4-20.5A48.248,48.248,0,0,0,327.429,243.1Z" transform="translate(-156.857 -164.268)" fill="#fff" stroke="#fff" stroke-miterlimit="10" stroke-width="0.5"/>
      <path id="Path_5" data-name="Path 5" d="M101.573,91.234s-2.333,14.011-18.268,7.624c-13.881-8.215-5.137-19.834-.347-26.284,6.623-8.306,6.251-12.951,6.251-12.951s-3.026,7.121-13.739,18.85,5.4,26.7,14.139,26.039,17.018-7.388,17.018-7.388-5.655-6.655,9.976-18.149,21.828-6.5,23.053-5.2,4.5,5.711,4.5,5.711-10.482,1.057-25.465,13.892c0,0,21.553-13.9,31.705-11.2L139.473,68.317s11.346-2.31,13.6-13.548S144.7,34.214,136.657,36.016s-11.678,9.212-11.678,9.212-6.854-8.181-20.928-3.06S92.134,60.2,89.165,65.831s-6.493,11.082-6.493,11.082S89.329,74.134,98.479,55.2c7.658-15.085,22.811-9.945,25.212-6.9,0,0,.423,4.191,1.605,4.907,0,0,1.151-11.409,10.2-14.057s18.64,8.3,11.127,20.876c-4.683,6.956-13.355,7.01-13.355,7.01s2.032-5.714-.946-8.57c0,0,.568,10.082-7.305,12.531a12.988,12.988,0,0,0-5.763-13.608s7.635,11.406-1.165,18.342c0,0-.736-4.018-3.9-5.882,0,0,3.3,5.873-.233,9.377s-10.988,12.787-24.559,7.388C89.4,86.6,94.316,91.944,101.573,91.234Z" transform="translate(-71.919 -35.791)" fill="#fff"/>
      <path id="Path_6" data-name="Path 6" d="M319.064,334.066l-2.245,1.04a1.037,1.037,0,0,0-.568.659l-24.445,86.114a1.274,1.274,0,0,1-.06.156c-.134.284-.6,1.372.031,1.847a1.628,1.628,0,0,0,1.282.2,1.034,1.034,0,0,0,.79-.719L320.491,335.3a1.034,1.034,0,0,0-1.426-1.239Z" transform="translate(-229.075 -249.242)" fill="#fff" stroke="#fff" stroke-miterlimit="10" stroke-width="0.5"/>
      <path id="Path_7" data-name="Path 7" d="M343.443,331.2l-2.245,1.06c-.284.131-.3.457-.384.753l-24.633,87.6a1.065,1.065,0,0,1-.057.159c-.136.284-.6,1.4.031,1.881a1.605,1.605,0,0,0,1.281.2,1.048,1.048,0,0,0,.79-.73l26.636-89.66a1.046,1.046,0,0,0-1.421-1.264Z" transform="translate(-246.525 -247.194)" fill="#fff" stroke="#fff" stroke-miterlimit="10" stroke-width="0.5"/>
    </g>
  </g>
</svg>
