<svg xmlns="http://www.w3.org/2000/svg" width="238.379" height="252.474" viewBox="0 0 238.379 252.474">
  <g id="Artboard_4" data-name="Artboard 4" transform="translate(-188.89 -172.791)">
    <g id="Layer_2" data-name="Layer 2" transform="translate(188.89 279.892)">
      <path id="Path_1" data-name="Path 1" d="M107.509,317.8s-2.029-10.691-16.638-10.828S69.89,302.1,69.89,302.1s2.06,12.16,15.568,11.913c14.608-.27,22.051,5.943,22.051,5.943" transform="translate(-69.89 -302.1)" fill="#fff"/>
      <path id="Path_2" data-name="Path 2" d="M130.664,383.482s-2.433-7.778-9.735-7.614-15.339-3.278-15.339-3.278,2.718,8.6,9.628,8.041A31.961,31.961,0,0,1,130.664,383.482Z" transform="translate(-91.998 -345.753)" fill="#fff"/>
    </g>
    <g id="Layer_4" data-name="Layer 4" transform="translate(196.033 172.791)">
      <path id="Path_3" data-name="Path 3" d="M203.67,226.246l7.139,5.562s4.972-8.3,24.671-15.389,23.494-11.54,23.494-11.54-11.136,13.238-28.307,19.843c-13.512,6.309-7.915,10.12-7.915,10.12s5.243,4.188,26.62-17.037c0,0-22.969,29.281-36.93,23.095C210.188,240.082,203.67,226.246,203.67,226.246Z" transform="translate(-153.51 -140.504)" fill="#fff"/>
      <path id="Path_4" data-name="Path 4" d="M373.942,252.555A44.545,44.545,0,0,0,361.611,232.3q-8.955-8.517-24.02-13.146t-36.629-3.742a130.405,130.405,0,0,0-33.066,5.284,127.454,127.454,0,0,0-26.761,11.532,108.3,108.3,0,0,0-20.917,15.64,123.577,123.577,0,0,0-15.164,17.479,97.4,97.4,0,0,0-9.773,16.965,52.526,52.526,0,0,0-4.295,14.174,35.152,35.152,0,0,0,10.051,30.4,40.623,40.623,0,0,0,16.348,9.476q10.063,3.278,23.807,2c.053-.034.114,0,.175,0h.038c2.756-1.142,5.6-1.047,8.555-1.5a52.749,52.749,0,0,1,5.479-1.032l.579-.114q4.39-1.207,8.958-2.676t9.518-3.522a6.746,6.746,0,0,0,3.468-3.967,25.888,25.888,0,0,0,1.736-6.244,16.162,16.162,0,0,0,0-5.433q-.457-2.284-1.371-1.835a148.019,148.019,0,0,1-16.752,7.9h0c-.571.206-1.142.381-1.717.552-.32.118-.64.225-.952.335a19.231,19.231,0,0,1-3.015,1.028,5.131,5.131,0,0,0-.761.263h0a13.863,13.863,0,0,1-2.909.864l-6.8,1.835q-12.054,2.064-20.643-.586a28.613,28.613,0,0,1-13.516-8.3,27.377,27.377,0,0,1-6.3-13.577,36.382,36.382,0,0,1,1-16.306,64.894,64.894,0,0,1,12.788-23.43,100.778,100.778,0,0,1,21.557-19.238,116.39,116.39,0,0,1,27.332-13.363,112.963,112.963,0,0,1,29.868-5.947q16.261-.887,27.587,3.156a41.613,41.613,0,0,1,27.766,30.024,66.163,66.163,0,0,1,1.645,22.695,102,102,0,0,1-5.665,24.968A127.157,127.157,0,0,1,336.514,330.1a148.377,148.377,0,0,1-18.358,23.426A131.1,131.1,0,0,1,294.5,373.057a123.763,123.763,0,0,1-28.318,13.512,108.231,108.231,0,0,1-32.422,5.368,50.662,50.662,0,0,1-13.519-1.249,25.187,25.187,0,0,1-8.494-3.742,16.371,16.371,0,0,1-4.751-5.144,17.281,17.281,0,0,1-2.01-5.361,17.655,17.655,0,0,1-.274-4.626,10.109,10.109,0,0,0,0-2.791q-.183-1.169-2.284-.381a26.862,26.862,0,0,0-4.473,2.284,64.551,64.551,0,0,0-6.411,4.138,17.526,17.526,0,0,0,4.748,12.042,37.861,37.861,0,0,0,5.391,4.409,33.861,33.861,0,0,0,8.037,3.891,65.946,65.946,0,0,0,11.6,2.718,106.173,106.173,0,0,0,15.709,1.028,116.577,116.577,0,0,0,35.259-5.361,148.044,148.044,0,0,0,31.981-14.4,157.784,157.784,0,0,0,27.572-21.084,160.728,160.728,0,0,0,21.85-25.569,151.655,151.655,0,0,0,15.069-27.686,98.963,98.963,0,0,0,7.234-27.465A64.646,64.646,0,0,0,373.942,252.555Z" transform="translate(-145.399 -146.936)" fill="#fff" stroke="#fff" stroke-miterlimit="10" stroke-width="0.5"/>
      <path id="Path_5" data-name="Path 5" d="M111.652,110.077s-3.126,18.773-24.477,10.215c-18.6-11.007-6.883-26.574-.464-35.217,8.875-11.128,8.376-17.353,8.376-17.353s-4.055,9.541-18.408,25.257,7.234,35.769,18.945,34.889,22.8-9.9,22.8-9.9-7.576-8.917,13.367-24.317,29.247-8.707,30.888-6.967,6.031,7.653,6.031,7.653-14.045,1.416-34.12,18.613c0,0,28.878-18.621,42.481-15L162.432,79.372s15.2-3.1,18.221-18.153S169.43,33.678,158.66,36.092s-15.648,12.343-15.648,12.343-9.183-10.961-28.04-4.1S99,68.495,95.026,76.041s-8.7,14.848-8.7,14.848,8.92-3.723,21.18-29.095c10.26-20.213,30.564-13.325,33.781-9.252,0,0,.567,5.616,2.151,6.575,0,0,1.542-15.286,13.66-18.834S182.074,51.4,172.008,68.255c-6.274,9.32-17.894,9.392-17.894,9.392s2.722-7.656-1.268-11.483c0,0,.761,13.508-9.788,16.79,0,0,2.924-10.9-7.721-18.233,0,0,10.23,15.282-1.561,24.576,0,0-.986-5.383-5.224-7.881,0,0,4.416,7.87-.312,12.564s-14.723,17.132-32.906,9.9C95.342,103.864,101.928,111.029,111.652,110.077Z" transform="translate(-71.919 -35.791)" fill="#fff"/>
      <path id="Path_6" data-name="Path 6" d="M328.448,334.1l-3.008,1.393a1.389,1.389,0,0,0-.761.883L291.925,451.757a1.7,1.7,0,0,1-.08.209c-.179.381-.8,1.839.042,2.475a2.182,2.182,0,0,0,1.717.263,1.386,1.386,0,0,0,1.058-.963l35.7-117.982a1.386,1.386,0,0,0-1.911-1.66Z" transform="translate(-207.873 -220.446)" fill="#fff" stroke="#fff" stroke-miterlimit="10" stroke-width="0.5"/>
      <path id="Path_7" data-name="Path 7" d="M352.826,331.227l-3.008,1.42c-.381.175-.4.613-.514,1.009l-33,117.377a1.426,1.426,0,0,1-.076.213c-.183.381-.8,1.873.042,2.52a2.151,2.151,0,0,0,1.717.267,1.4,1.4,0,0,0,1.058-.978L354.73,332.921a1.4,1.4,0,0,0-1.9-1.694Z" transform="translate(-222.969 -218.675)" fill="#fff" stroke="#fff" stroke-miterlimit="10" stroke-width="0.5"/>
    </g>
  </g>
</svg>
