<svg xmlns="http://www.w3.org/2000/svg" width="10.797" height="10.797" viewBox="0 0 10.797 10.797">
  <path id="edit" d="M10.283.514A1.761,1.761,0,0,0,7.8.514L.748,7.562s-.005.007-.008.011l-.011.015A.19.19,0,0,0,.7,7.634c0,.005,0,.01-.006.015l0,.006-.691,2.9A.194.194,0,0,0,0,10.6s0,0,0,.007a.194.194,0,0,0,.013.065l.006.014a.2.2,0,0,0,.038.058.2.2,0,0,0,.064.043A.194.194,0,0,0,.2,10.8a.2.2,0,0,0,.045-.005l2.9-.691.015-.006.019-.008a.193.193,0,0,0,.039-.024l.014-.011.005,0L10.283,3A1.761,1.761,0,0,0,10.283.514ZM10.007.79a1.369,1.369,0,0,1,.127,1.786L8.221.663A1.369,1.369,0,0,1,10.007.79Zm-.967,2.9L7.1,1.758l.276-.276L9.316,3.416ZM.97,9.828a.2.2,0,0,0-.276,0l-.148.148.5-2.1.864-.1-.111,1a.2.2,0,0,0,0,.021.2.2,0,0,0,0,.021c0,.006,0,.012.005.018a.2.2,0,0,0,.01.032.19.19,0,0,0,.019.035.185.185,0,0,0,.02.025.2.2,0,0,0,.031.026.2.2,0,0,0,.027.016.2.2,0,0,0,.04.013A.2.2,0,0,0,1.97,9h.043l1-.111-.1.864-2.1.5L.97,10.1A.2.2,0,0,0,.97,9.828ZM3.422,8.757,7.8,4.383a.2.2,0,1,0-.276-.276L3.146,8.481l-.933.1.1-.933L6.69,3.278A.2.2,0,1,0,6.414,3L2.04,7.375l-.622.069,5.41-5.41L8.763,3.969l-5.41,5.41ZM9.592,3.14,7.657,1.205,7.934.929,9.868,2.863Z" fill="#707070"/>
</svg>
