<svg xmlns="http://www.w3.org/2000/svg" width="168.921" height="168.868" viewBox="0 0 168.921 168.868">
  <path id="edit-1" d="M166.464,10.485,158.442,2.46a8.419,8.419,0,0,0-11.88,0l-8.8,8.8H0V168.877H157.615V31.217l.858-.858h0l7.991-7.991A8.412,8.412,0,0,0,166.464,10.485ZM56.423,103.444l9.063,9.063-12.463,3.4Zm90.108-69.106L134.592,22.4l3.98-3.98,11.942,11.939Zm-3.98,3.98L70.9,109.965,58.965,98.026l71.647-71.647Zm9.434-1.472v126.4H5.629V16.891H132.135L53,96.036l-.529.529L46.5,118.459l-3.451,3.451a2.814,2.814,0,1,0,3.98,3.98l3.451-3.451,21.894-5.975L146.537,42.3h0l1.258-1.258Zm10.5-18.458-7.991,7.991L142.551,14.436l7.991-7.991a2.778,2.778,0,0,1,3.921,0l8.021,8.021A2.776,2.776,0,0,1,162.484,18.388Z" transform="translate(0 -0.009)" fill="#fff"/>
</svg>
