<svg xmlns="http://www.w3.org/2000/svg" width="109.273" height="109.273" viewBox="0 0 109.273 109.273">
  <path id="user-3" d="M109.273,54.636A54.636,54.636,0,1,0,17.734,94.884l-.052.046,1.772,1.494c.115.1.24.177.356.272.942.781,1.917,1.522,2.911,2.239.322.232.644.465.972.691q1.591,1.1,3.262,2.082c.242.143.487.282.731.421,1.218.693,2.462,1.347,3.735,1.947.093.044.189.083.282.127a54.145,54.145,0,0,0,13.214,4.182l.366.066c1.438.248,2.893.447,4.365.58.179.016.358.026.538.042,1.466.121,2.948.2,4.45.2s2.956-.077,4.415-.195c.185-.016.37-.026.554-.042q2.19-.2,4.327-.57c.123-.022.248-.044.372-.068a54.142,54.142,0,0,0,13.027-4.083c.151-.07.3-.135.455-.207q1.839-.864,3.6-1.86.438-.247.872-.5c1.069-.63,2.12-1.287,3.141-1.987.368-.25.727-.515,1.091-.777.872-.628,1.728-1.276,2.561-1.953.185-.149.383-.278.564-.431l1.818-1.518-.054-.046A54.5,54.5,0,0,0,109.273,54.636Zm-105.3,0A50.663,50.663,0,1,1,88.235,92.51a14.888,14.888,0,0,0-1.774-1.067l-16.822-8.41a4.4,4.4,0,0,1-2.448-3.96V73.2c.389-.481.8-1.025,1.226-1.623a40.487,40.487,0,0,0,5.2-10.178,7.21,7.21,0,0,0,4.142-6.534V47.82a7.229,7.229,0,0,0-1.762-4.707V33.841a16.025,16.025,0,0,0-3.741-11.65c-3.662-4.18-9.588-6.3-17.617-6.3S40.681,18.01,37.02,22.188a16.025,16.025,0,0,0-3.741,11.65v9.272a7.239,7.239,0,0,0-1.762,4.707v7.043a7.227,7.227,0,0,0,2.662,5.6,37.331,37.331,0,0,0,6.145,12.693v5.75a4.432,4.432,0,0,1-2.309,3.89L22.306,91.368a14.356,14.356,0,0,0-1.494.946A50.541,50.541,0,0,1,3.974,54.636ZM84.356,95.627q-1.043.757-2.12,1.46c-.33.215-.658.429-.993.638-.938.58-1.891,1.132-2.865,1.649-.215.113-.431.221-.648.332a50.627,50.627,0,0,1-6.93,2.932c-.083.028-.167.058-.252.085q-1.869.62-3.783,1.1l-.012,0c-1.287.318-2.591.582-3.9.8l-.107.02c-1.234.2-2.478.346-3.725.455-.221.02-.441.034-.664.05-1.234.093-2.474.153-3.719.153s-2.515-.062-3.765-.155c-.217-.016-.433-.03-.648-.05-1.26-.111-2.513-.26-3.755-.463l-.167-.03a50.473,50.473,0,0,1-7.729-1.929l-.234-.079q-1.875-.638-3.7-1.417l-.026-.012c-1.148-.495-2.275-1.043-3.387-1.621-.145-.076-.292-.147-.435-.224-1.015-.542-2.009-1.128-2.988-1.74q-.435-.274-.864-.554c-.9-.59-1.792-1.2-2.658-1.854-.089-.068-.175-.139-.264-.207l.191-.107,15.709-8.569A8.4,8.4,0,0,0,44.3,78.909l0-7.156-.457-.552a33.172,33.172,0,0,1-5.962-12.35l-.181-.787-.677-.439a3.292,3.292,0,0,1-1.528-2.766V47.816a3.245,3.245,0,0,1,1.107-2.43l.656-.592V33.727l-.018-.26A11.966,11.966,0,0,1,40.008,24.8c2.873-3.274,7.8-4.937,14.629-4.937,6.807,0,11.714,1.649,14.595,4.9a12.166,12.166,0,0,1,2.807,8.7L72.021,44.8l.656.592a3.248,3.248,0,0,1,1.107,2.43v7.043a3.318,3.318,0,0,1-2.346,3.129l-.987.3-.318.983a36.756,36.756,0,0,1-4.959,10c-.521.735-1.027,1.387-1.462,1.885l-.493.562v7.349a8.353,8.353,0,0,0,4.645,7.514L84.684,95c.107.054.213.109.318.165C84.79,95.323,84.571,95.472,84.356,95.627Z" fill="#fe0640"/>
</svg>
