<svg xmlns="http://www.w3.org/2000/svg" width="66.269" height="66.269" viewBox="0 0 66.269 66.269">
  <path id="user-3" d="M66.269,33.134A33.134,33.134,0,1,0,10.755,57.543l-.031.028,1.075.906c.07.059.146.107.216.165.571.474,1.163.923,1.765,1.358.2.141.39.282.589.419q.965.665,1.978,1.263c.147.087.3.171.443.255.739.421,1.493.817,2.265,1.181l.171.077a32.836,32.836,0,0,0,8.014,2.536l.222.04c.872.151,1.754.271,2.647.352.108.01.217.016.327.025.889.074,1.788.12,2.7.12s1.793-.047,2.677-.118c.112-.01.224-.016.336-.025q1.328-.121,2.624-.346L39,65.739a32.835,32.835,0,0,0,7.9-2.476c.092-.042.184-.082.276-.125q1.115-.524,2.182-1.128.266-.15.529-.3c.648-.382,1.286-.781,1.9-1.2.223-.152.441-.312.661-.471.529-.381,1.048-.774,1.553-1.184.112-.09.233-.169.342-.261l1.1-.921-.033-.028A33.049,33.049,0,0,0,66.269,33.134Zm-63.859,0A30.725,30.725,0,1,1,53.51,56.1a9.03,9.03,0,0,0-1.076-.647l-10.2-5.1a2.671,2.671,0,0,1-1.484-2.4V44.392c.236-.292.486-.622.743-.984a24.553,24.553,0,0,0,3.152-6.173,4.373,4.373,0,0,0,2.512-3.963V29a4.384,4.384,0,0,0-1.069-2.854V20.523a9.718,9.718,0,0,0-2.269-7.065C41.6,10.922,38,9.639,33.134,9.639s-8.463,1.283-10.684,3.817a9.718,9.718,0,0,0-2.269,7.065v5.623A4.39,4.39,0,0,0,19.113,29v4.271a4.383,4.383,0,0,0,1.615,3.4,22.64,22.64,0,0,0,3.727,7.7v3.487a2.688,2.688,0,0,1-1.4,2.359l-9.527,5.2a8.707,8.707,0,0,0-.906.574A30.651,30.651,0,0,1,2.41,33.134ZM51.158,57.994c-.422.306-.851.6-1.286.886-.2.13-.4.26-.6.387-.569.352-1.147.687-1.737,1-.13.069-.261.134-.393.2a30.7,30.7,0,0,1-4.2,1.778l-.153.052q-1.133.376-2.294.665h-.007c-.781.193-1.571.353-2.366.484l-.065.012c-.748.122-1.5.21-2.259.276-.134.012-.267.02-.4.03-.748.057-1.5.093-2.256.093s-1.525-.037-2.283-.094c-.131-.01-.263-.018-.393-.03-.764-.067-1.524-.158-2.277-.281l-.1-.018a30.61,30.61,0,0,1-4.687-1.17l-.142-.048q-1.137-.387-2.244-.859l-.016-.007c-.7-.3-1.38-.633-2.054-.983-.088-.046-.177-.089-.264-.136-.616-.329-1.218-.684-1.812-1.055q-.264-.166-.524-.336c-.547-.358-1.087-.73-1.612-1.124-.054-.041-.106-.084-.16-.125l.116-.065,9.527-5.2a5.1,5.1,0,0,0,2.657-4.475v-4.34l-.277-.335a20.118,20.118,0,0,1-3.616-7.49l-.11-.477-.411-.266a2,2,0,0,1-.927-1.677V29a1.968,1.968,0,0,1,.671-1.474l.4-.359V20.454l-.011-.158a7.257,7.257,0,0,1,1.682-5.253c1.742-1.986,4.728-2.994,8.872-2.994,4.128,0,7.1,1,8.851,2.971a7.378,7.378,0,0,1,1.7,5.279l-.011,6.869.4.359A1.97,1.97,0,0,1,44.746,29v4.271a2.012,2.012,0,0,1-1.423,1.9l-.6.184-.193.6a22.291,22.291,0,0,1-3.007,6.063c-.316.446-.623.841-.887,1.143l-.3.341v4.457a5.066,5.066,0,0,0,2.817,4.557l10.2,5.1c.065.033.129.066.193.1C51.421,57.809,51.289,57.9,51.158,57.994Z" fill="#fe0640"/>
</svg>
