<svg xmlns="http://www.w3.org/2000/svg" width="78" height="78" viewBox="0 0 78 78">
  <path id="user-3" d="M78,39A39,39,0,1,0,12.659,67.73l-.037.033,1.265,1.066c.082.069.172.126.254.194.672.557,1.369,1.086,2.078,1.6.23.166.459.332.693.494q1.136.783,2.329,1.486c.173.1.347.2.522.3.869.495,1.757.962,2.666,1.39.067.031.135.06.2.091a38.649,38.649,0,0,0,9.432,2.985l.261.047c1.027.177,2.065.319,3.116.414.128.011.255.018.384.03,1.047.087,2.1.142,3.177.142s2.11-.055,3.151-.139c.132-.011.264-.018.4-.03q1.564-.143,3.089-.407c.088-.016.177-.031.265-.048a38.647,38.647,0,0,0,9.3-2.914c.108-.05.217-.1.325-.147q1.313-.617,2.568-1.327.313-.177.623-.359c.763-.45,1.513-.919,2.242-1.418.262-.179.519-.367.779-.555.623-.448,1.234-.91,1.828-1.394.132-.106.274-.2.4-.308l1.3-1.083-.038-.033A38.9,38.9,0,0,0,78,39ZM2.836,39A36.164,36.164,0,1,1,62.983,66.035a10.627,10.627,0,0,0-1.266-.762l-12.008-6a3.143,3.143,0,0,1-1.747-2.826V52.25c.278-.343.572-.732.875-1.159a28.9,28.9,0,0,0,3.71-7.265A5.147,5.147,0,0,0,55.5,39.162V34.134a5.16,5.16,0,0,0-1.258-3.36V24.156a11.439,11.439,0,0,0-2.67-8.316C48.961,12.856,44.731,11.345,39,11.345s-9.961,1.51-12.575,4.493a11.439,11.439,0,0,0-2.67,8.316v6.619a5.167,5.167,0,0,0-1.258,3.36V39.16a5.159,5.159,0,0,0,1.9,4,26.648,26.648,0,0,0,4.386,9.061v4.1A3.163,3.163,0,0,1,27.135,59.1L15.922,65.219a10.247,10.247,0,0,0-1.066.675A36.077,36.077,0,0,1,2.836,39ZM60.215,68.26Q59.47,68.8,58.7,69.3c-.235.153-.469.306-.709.455-.669.414-1.35.808-2.045,1.177-.153.081-.308.157-.462.237a36.137,36.137,0,0,1-4.947,2.093l-.18.061q-1.334.442-2.7.783h-.009c-.919.227-1.849.416-2.785.57l-.077.014c-.881.143-1.768.247-2.659.325-.157.014-.315.024-.474.035-.881.067-1.766.109-2.655.109s-1.8-.044-2.687-.111c-.155-.011-.309-.021-.462-.035-.9-.079-1.794-.186-2.68-.33l-.119-.021a36.028,36.028,0,0,1-5.517-1.377l-.167-.057q-1.338-.455-2.641-1.011l-.018-.009c-.82-.353-1.624-.745-2.418-1.157-.1-.054-.208-.1-.311-.16-.725-.387-1.434-.806-2.133-1.242q-.311-.2-.617-.4c-.644-.421-1.279-.859-1.9-1.323-.064-.048-.125-.1-.189-.147l.136-.077,11.214-6.117a6,6,0,0,0,3.127-5.267V51.218l-.326-.394a23.679,23.679,0,0,1-4.256-8.815l-.129-.562-.484-.313a2.35,2.35,0,0,1-1.091-1.974V34.131a2.316,2.316,0,0,1,.79-1.734l.468-.423v-7.9l-.013-.186a8.542,8.542,0,0,1,1.98-6.183c2.051-2.337,5.565-3.524,10.442-3.524,4.859,0,8.362,1.177,10.418,3.5a8.684,8.684,0,0,1,2,6.213l-.013,8.085.468.423a2.319,2.319,0,0,1,.79,1.734v5.027A2.369,2.369,0,0,1,50.992,41.4l-.7.217-.227.7a26.236,26.236,0,0,1-3.54,7.136c-.372.525-.733.99-1.044,1.346l-.352.4v5.246a5.963,5.963,0,0,0,3.316,5.364l12.008,6c.077.038.152.078.227.118C60.524,68.043,60.368,68.149,60.215,68.26Z" fill="#fe0640"/>
</svg>
